<?xml version="1.0" encoding="UTF-8"?><svg id="a" xmlns="http://www.w3.org/2000/svg" width="400" height="400" xmlns:xlink="http://www.w3.org/1999/xlink" viewBox="0 0 400 400"><defs><style>.d{fill:none;stroke:url(#c);stroke-linecap:round;stroke-miterlimit:10;stroke-width:25px;}.e{fill:url(#b);}</style><linearGradient id="b" x1="58.58" y1="58.58" x2="341.42" y2="341.42" gradientTransform="matrix(1, 0, 0, 1, 0, 0)" gradientUnits="userSpaceOnUse"><stop offset="0" stop-color="#322f37"/><stop offset="1" stop-color="#313034"/></linearGradient><linearGradient id="c" x1="146.28" y1="151.04" x2="276.46" y2="281.22" gradientTransform="matrix(1, 0, 0, 1, 0, 0)" gradientUnits="userSpaceOnUse"><stop offset="0" stop-color="#322f37"/><stop offset="1" stop-color="#313034"/></linearGradient></defs><path class="e" d="M200,27c46.21,0,89.65,18,122.33,50.67,32.68,32.68,50.67,76.12,50.67,122.33s-18,89.65-50.67,122.33c-32.68,32.68-76.12,50.67-122.33,50.67s-89.65-18-122.33-50.67c-32.68-32.68-50.67-76.12-50.67-122.33s18-89.65,50.67-122.33c32.68-32.68,76.12-50.67,122.33-50.67m0-27C89.54,0,0,89.54,0,200s89.54,200,200,200,200-89.54,200-200S310.46,0,200,0h0Z"/><path class="d" d="M145,285v-106.99m55,106.99V115m55,170V124.51"/></svg>